<?xml version="1.0" encoding="UTF-8"?>
<svg width="51px" height="46px" viewBox="0 0 51 46" version="1.1" xmlns="http://www.w3.org/2000/svg" xmlns:xlink="http://www.w3.org/1999/xlink">
    <!-- Generator: Sketch 49.3 (51167) - http://www.bohemiancoding.com/sketch -->
    <title>Shape</title>
    <desc>Created with Sketch.</desc>
    <defs></defs>
    <g id="Page-1" stroke="none" stroke-width="1" fill="none" fill-rule="evenodd">
        <g id="主控制台选择活动弹窗-copy-5" transform="translate(-793.000000, -304.000000)" fill="#FFFFFF" fill-rule="nonzero">
            <g id="样式-copy-4" transform="translate(369.000000, 134.000000)">
                <g id="Group-9">
                    <g id="Group-26" transform="translate(351.000000, 170.000000)">
                        <path d="M105.736877,33.7585892 L98.3399884,29.7406207 L90.9392731,33.7585892 L92.5273273,25.5772399 L86.366442,19.8832045 L94.7467765,18.8423592 L98.3399884,11.3038848 L101.929374,18.8423592 L110.309708,19.8832045 L104.148823,25.5772399 L105.736877,33.7585892 Z M118.510191,22.9866069 C118.510191,19.5885534 120.676067,16.7109225 123.683803,15.6547709 L123.660844,2.5561933 C123.660844,1.14416438 122.528159,0 121.12761,0 L75.5676733,0 C74.1671242,0 73.0344397,1.14416438 73.0344397,2.5561933 L73,15.6547709 C76.0077364,16.7109225 78.1697862,19.5885534 78.1697862,22.9866069 C78.1697862,26.3808336 76.0077364,29.262291 73,30.3184428 L73.0344397,43.4438068 C73.0344397,44.8558357 74.1671242,46 75.5676733,46 L121.12761,46 C122.528159,46 123.660844,44.8558357 123.660844,43.4438068 L123.683803,30.3184428 C120.676067,29.262291 118.510191,26.3808336 118.510191,22.9866069 Z" id="Shape"></path>
                    </g>
                </g>
            </g>
        </g>
    </g>
</svg>