<?xml version="1.0" encoding="UTF-8"?>
<svg width="55px" height="54px" viewBox="0 0 55 54" version="1.1" xmlns="http://www.w3.org/2000/svg" xmlns:xlink="http://www.w3.org/1999/xlink">
    <!-- Generator: Sketch 49.3 (51167) - http://www.bohemiancoding.com/sketch -->
    <title>活动 (2)</title>
    <desc>Created with Sketch.</desc>
    <defs></defs>
    <g id="Page-1" stroke="none" stroke-width="1" fill="none" fill-rule="evenodd">
        <g id="主控制台选择活动弹窗-copy-5" transform="translate(-521.000000, -304.000000)" fill="#FFFFFF" fill-rule="nonzero">
            <g id="样式-copy-4" transform="translate(369.000000, 134.000000)">
                <g id="Group-9">
                    <g id="Group-25" transform="translate(78.000000, 170.000000)">
                        <g id="活动-(2)" transform="translate(74.000000, 0.000000)">
                            <path d="M33.9774248,11.9664086 C35.6949782,11.3275854 37.5149796,10.9900544 39.3890148,10.9900544 C41.3112481,10.9900544 43.1857156,11.3396169 44.9390754,12.0146067 C44.9753861,11.6468889 44.9993771,11.2672116 44.9993771,10.8876064 C44.9993771,4.87926737 40.1002433,0.00412455802 34.0559538,0.00412455802 C30.8557858,0.00412455802 27.9812613,1.3721155 25.9803548,3.54751507 C27.6737731,4.48172289 29.2408245,5.69294387 30.6265385,7.16331086 C31.9886938,8.59751115 33.1094983,10.2188845 33.9774248,11.9664086 Z" id="Shape"></path>
                            <path d="M18.2909172,43.0019648 L21.6899295,43.0019648 L20.3340421,39.1693135 C28.4092088,37.6444805 34.5437707,30.1657025 34.5437707,21.1685756 C34.5437707,11.0744912 26.8182385,2.8844847 17.2846643,2.8844847 C7.75087402,2.89068055 0.025197794,11.0744912 0.0251977236,21.1685756 C0.0251977236,30.0815539 6.04556824,37.5058659 14.0123072,39.1210433 L12.8793992,43.0019648 L15.8263289,43.0019648 L15.3380798,44.6650522 C15.024756,45.7197193 15.3380798,46.8225125 16.1696235,47.6240855 C16.5250937,47.967452 16.5915912,48.4676606 16.3382809,48.8775248 L14.090404,52.4330188 C13.7711005,52.9391351 13.9700889,53.5842263 14.5423425,53.8672192 C14.7227043,53.9544535 14.9204419,53.9998181 15.120792,53.9999261 C15.5307282,53.9999261 15.9344685,53.8069175 16.1575199,53.4635509 L18.4053247,49.9138925 C19.1706591,48.7086513 18.9718148,47.2141493 17.9172196,46.2019166 C17.6399904,45.930595 17.5313465,45.5569695 17.6399904,45.2014273 L18.2909172,43.0019648 Z M15.6636512,10.2729903 C15.6394441,10.278898 13.0058382,10.9118135 10.7039996,12.8159636 C7.58805226,15.4012273 6.49765082,18.944906 7.46161327,23.3440472 C7.63055885,24.1214851 7.14230972,24.8988509 6.35874803,25.0675083 C6.2505364,25.0915714 6.14801631,25.1036029 6.04564033,25.1036029 C5.38268198,25.1036029 4.78593305,24.6457568 4.63528692,23.9706949 C3.11664985,17.0645308 6.09362233,12.8882247 8.85366723,10.5984176 C11.6258878,8.30227062 14.663162,7.54284405 15.0006929,7.4645311 C15.7781308,7.27771834 16.5554966,7.76582343 16.7361856,8.54326122 C16.9168025,9.3207711 16.4410171,10.0923013 15.6636512,10.2729903 Z" id="Shape"></path>
                            <path d="M54.0210713,28.0988749 C54.0210713,19.5234275 47.4703774,12.5690653 39.3890148,12.5690653 C37.7195154,12.5690653 36.1167297,12.8642337 34.6281354,13.4126405 C35.6044896,15.8352265 36.1167297,18.4626365 36.1167297,21.1744833 C36.1167297,26.4657581 34.1702172,31.4375134 30.6327344,35.1856558 C29.7651682,36.1017083 28.8307442,36.9153128 27.8425747,37.6265413 C29.9517648,40.5010658 32.9951629,42.5740894 36.4843755,43.3211963 L35.9300611,45.7620817 L37.4545338,45.7620817 L37.4545338,45.7679174 L37.3278786,46.2019166 C37.0811244,47.039368 37.3278786,47.9191819 37.9909811,48.564201 C38.1357195,48.6966197 38.1594224,48.9076396 38.0571905,49.0644096 L36.4784678,51.5411735 C36.1588761,52.0472178 36.3577203,52.6923089 36.9304783,52.9753018 C37.110801,53.0626554 37.3085608,53.1080498 37.5089278,53.1080807 C37.9184317,53.1080807 38.3221,52.915 38.5451514,52.5716335 L40.1179664,50.0887458 C40.7267468,49.1244231 40.5699049,47.9374813 39.7324534,47.1300007 C39.6240257,47.0273365 39.5698478,46.8707826 39.6119221,46.7260442 L39.8952032,45.7620817 L41.3657142,45.7620817 L40.7630575,43.562259 C48.1995451,42.8209156 54.0210713,36.1799492 54.0210713,28.0988749 Z M42.9627363,38.5845961 C42.7833638,38.6600186 42.5907584,38.6989365 42.3961742,38.6990756 C41.8356639,38.6990756 41.2996489,38.3677406 41.064566,37.8192617 C40.7511701,37.0838982 41.0944647,36.2344152 41.8299002,35.9210194 C44.4635062,34.8001429 46.3794716,32.6427546 46.9642611,30.1477634 C47.1450941,29.3703255 47.9286558,28.8763127 48.6997537,29.0631255 C49.4771916,29.2438144 49.9654407,30.0211802 49.7845356,30.7986181 C48.9948501,34.1975583 46.445681,37.1080333 42.9627363,38.5845961 Z" id="Shape"></path>
                        </g>
                    </g>
                </g>
            </g>
        </g>
    </g>
</svg>